<svg width="126" height="42" viewBox="0 0 126 42" fill="none" xmlns="http://www.w3.org/2000/svg">
<path d="M26.8229 35.0137C24.7457 37.2295 21.9622 38.3373 18.4724 38.3373C15.0103 38.3373 12.3237 37.4095 10.4127 35.5538C8.5016 33.6704 7.54607 31.0254 7.54607 27.6187C7.54607 24.2121 8.57085 21.7055 10.6204 20.0991C12.6699 18.465 15.2319 17.648 18.3062 17.648C19.6079 17.648 20.8543 17.7726 22.0452 18.0219C23.2639 18.2711 24.1502 18.5343 24.7041 18.8112L25.535 19.1851L24.621 23.4643C23.4855 23.1319 22.3084 22.9657 21.0897 22.9657C19.8988 22.9657 18.8047 23.3535 17.8077 24.129C16.8383 24.8768 16.3536 26.04 16.3536 27.6187C16.3536 31.1639 17.7246 32.9365 20.4665 32.9365C21.1866 32.9365 21.8791 32.8534 22.5438 32.6872C23.2085 32.4933 23.6932 32.2995 23.9979 32.1056L24.4548 31.8563L26.8229 35.0137ZM35.1841 38.3373C33.0515 38.3373 31.2928 37.7142 29.9079 36.4678C28.5508 35.2215 27.8722 33.4627 27.8722 31.1916C27.8722 28.8928 28.6477 27.231 30.1987 26.2062C31.7498 25.1537 33.6193 24.6275 35.8073 24.6275C37.9953 24.6275 39.8926 24.9737 41.499 25.6661C41.1389 23.3673 39.6848 22.2179 37.1367 22.2179C35.9735 22.2179 34.5333 22.4533 32.8161 22.9242L31.7775 19.1851C34.2701 18.1604 36.8044 17.648 39.3802 17.648C46.8029 17.648 50.5142 20.8054 50.5142 27.1202C50.5142 29.2805 50.2649 32.2718 49.7664 36.0939L49.5587 37.9219H42.7038L42.4545 35.6369C40.5711 37.4372 38.1477 38.3373 35.1841 38.3373ZM38.9232 33.1858C40.1695 33.1858 41.2358 32.8395 42.1221 32.1471L41.8729 29.4052C41.1804 28.9343 40.4049 28.6989 39.5464 28.6989C38.7155 28.6989 38.023 28.9066 37.4691 29.3221C36.9429 29.7375 36.6798 30.2499 36.6798 30.8592C36.6798 31.4686 36.8875 32.0087 37.3029 32.4795C37.7184 32.9503 38.2585 33.1858 38.9232 33.1858ZM62.8784 10.9592L61.7566 37.9219H54.1124L52.9907 10.9592H62.8784ZM75.2526 18.8112L75.9588 18.562L74.5463 37.9219H66.6943L65.3649 18.562C66.9436 19.199 68.6192 19.5175 70.3918 19.5175C72.1921 19.5175 73.8123 19.2821 75.2526 18.8112ZM70.6411 17.6895C69.2562 17.6895 68.093 17.2741 67.1513 16.4432C66.2096 15.6123 65.7388 14.5321 65.7388 13.2027C65.7388 11.8455 66.1958 10.7654 67.1098 9.96216C68.0514 9.13126 69.2147 8.71582 70.5995 8.71582C72.0121 8.71582 73.1892 9.13126 74.1308 9.96216C75.0725 10.7931 75.5434 11.8732 75.5434 13.2027C75.5434 14.5321 75.0725 15.6123 74.1308 16.4432C73.1892 17.2741 72.0259 17.6895 70.6411 17.6895ZM97.5385 35.0137C95.4612 37.2295 92.6777 38.3373 89.188 38.3373C85.7259 38.3373 83.0393 37.4095 81.1282 35.5538C79.2172 33.6704 78.2616 31.0254 78.2616 27.6187C78.2616 24.2121 79.2864 21.7055 81.336 20.0991C83.3855 18.465 85.9474 17.648 89.0218 17.648C90.3235 17.648 91.5699 17.7726 92.7608 18.0219C93.9795 18.2711 94.8658 18.5343 95.4197 18.8112L96.2506 19.1851L95.3366 23.4643C94.201 23.1319 93.0239 22.9657 91.8053 22.9657C90.6143 22.9657 89.5203 23.3535 88.5232 24.129C87.5539 24.8768 87.0692 26.04 87.0692 27.6187C87.0692 31.1639 88.4401 32.9365 91.1821 32.9365C91.9022 32.9365 92.5946 32.8534 93.2594 32.6872C93.9241 32.4933 94.4088 32.2995 94.7134 32.1056L95.1704 31.8563L97.5385 35.0137ZM101.579 35.8862C99.5849 34.2244 98.5878 31.5932 98.5878 27.9926C98.5878 24.3921 99.5849 21.7748 101.579 20.1407C103.601 18.4789 106.287 17.648 109.639 17.648C112.99 17.648 115.663 18.4789 117.657 20.1407C119.679 21.7748 120.69 24.3921 120.69 27.9926C120.69 31.5932 119.679 34.2244 117.657 35.8862C115.663 37.5203 112.99 38.3373 109.639 38.3373C106.287 38.3373 103.601 37.5203 101.579 35.8862ZM107.894 23.2981C107.561 24.2398 107.395 25.8046 107.395 27.9926C107.395 30.1807 107.561 31.7594 107.894 32.7288C108.226 33.6704 108.808 34.1413 109.639 34.1413C110.47 34.1413 111.051 33.6704 111.384 32.7288C111.716 31.7594 111.882 30.1807 111.882 27.9926C111.882 25.8046 111.716 24.2398 111.384 23.2981C111.051 22.3287 110.47 21.844 109.639 21.844C108.808 21.844 108.226 22.3287 107.894 23.2981Z" fill="#20403C"/>
<path d="M15.7977 9.68147C16.602 12.6542 15.7452 14.5393 14.1764 14.9729C12.6076 15.4065 10.9208 14.2244 10.1165 11.2517C9.31219 8.27899 9.93193 5.51763 11.5007 5.08403C13.0695 4.65043 14.9933 6.70877 15.7977 9.68147Z" fill="#CEE38C"/>
<path d="M8.07222 11.9303C10.1866 14.1509 10.6302 18.8509 9.15542 17.3604C7.35004 15.5357 5.94269 18.2786 3.82835 16.0579C1.71401 13.8373 0.950022 11.1131 2.12193 9.97329C3.29385 8.83347 5.95788 9.70964 8.07222 11.9303Z" fill="#CEE38C"/>
<ellipse cx="110.421" cy="28.4396" rx="5.88975" ry="8.26771" fill="#20403C"/>
<path d="M106.853 26.4125C106.512 25.9676 106.552 25.3364 106.946 24.9388V24.9388C107.344 24.536 107.979 24.5007 108.418 24.8567L111.009 26.9535C111.28 27.1723 111.526 27.42 111.744 27.6923L113.963 30.4665C114.318 30.91 114.284 31.5527 113.885 31.956V31.956C113.492 32.3526 112.87 32.3929 112.43 32.05L109.786 29.986C109.456 29.7284 109.16 29.4291 108.905 29.0956L106.853 26.4125Z" fill="white"/>
<path d="M108.659 31.9303C108.217 32.288 107.58 32.2527 107.18 31.8483V31.8483C106.788 31.4516 106.746 30.8227 107.082 30.3763L108.934 27.9173C109.169 27.6052 109.442 27.3244 109.747 27.0814L112.668 24.7524C113.106 24.4033 113.733 24.4406 114.128 24.8392V24.8392C114.524 25.24 114.559 25.8782 114.208 26.3206L112.08 29.0056C111.855 29.2887 111.601 29.546 111.321 29.773L108.659 31.9303Z" fill="white"/>
<path d="M115.984 15.2109C122.321 17.1516 123.987 21.6722 124.001 25.7936" stroke="#6366F1" stroke-width="3.24569" stroke-linecap="round"/>
<g clip-path="url(#clip0_214_404)">
<path d="M68.2116 1.41406C68.7656 1.41406 69.2738 1.62108 69.6438 2.00359C70.0138 2.3865 70.2333 2.93316 70.2333 3.59264C70.2333 4.24888 70.0166 4.90755 69.6632 5.4061C69.3114 5.90223 68.8019 6.26613 68.2116 6.26613C67.6213 6.26613 67.1118 5.90223 66.76 5.4061C66.4066 4.90755 66.1899 4.24888 66.1899 3.59305C66.1899 2.93316 66.4095 2.3865 66.7798 2.00359C67.1494 1.62108 67.6577 1.41406 68.2116 1.41406ZM63.7639 5.05311C64.3178 5.05311 64.8261 5.26014 65.1961 5.64264C65.566 6.02555 65.7856 6.57222 65.7856 7.23169C65.7856 7.88793 65.5689 8.5466 65.2155 9.04515C64.8637 9.54128 64.3542 9.90518 63.7639 9.90518C63.1735 9.90518 62.6641 9.54128 62.3123 9.04515C61.9589 8.5466 61.7422 7.88753 61.7422 7.2321C61.7422 6.57221 61.9617 6.02555 62.3321 5.64264C62.7017 5.26014 63.2099 5.05311 63.7639 5.05311ZM70.8398 7.88349C67.9593 7.88349 65.5729 10.3358 64.8216 13.4108C64.4885 14.775 64.9967 16.2383 66.2502 16.9318C67.2461 17.4833 68.7364 17.992 70.8394 17.992C72.9428 17.992 74.4332 17.4833 75.4295 16.9318C76.6825 16.2383 77.1908 14.775 76.8576 13.4112C76.1067 10.3358 73.7199 7.88349 70.8398 7.88349ZM77.9157 5.05311C77.3618 5.05311 76.8535 5.26014 76.484 5.64264C76.1136 6.02555 75.8941 6.57222 75.8941 7.23169C75.8941 7.88793 76.1108 8.5466 76.4642 9.04515C76.8159 9.54128 77.3254 9.90518 77.9157 9.90518C78.5061 9.90518 79.0156 9.54128 79.3673 9.04515C79.7207 8.5466 79.9374 7.88793 79.9374 7.2321C79.9374 6.57221 79.7179 6.02555 79.3479 5.64264C78.9779 5.26014 78.4697 5.05311 77.9157 5.05311ZM73.468 1.41406C72.9141 1.41406 72.4058 1.62108 72.0363 2.00359C71.6659 2.3865 71.4463 2.93316 71.4463 3.59264C71.4463 4.24888 71.663 4.90755 72.0164 5.4061C72.3682 5.90223 72.8777 6.26613 73.468 6.26613C74.0584 6.26613 74.5678 5.90223 74.9196 5.4061C75.273 4.90755 75.4897 4.24888 75.4897 3.59305C75.4897 2.93316 75.2702 2.3865 74.9002 2.00359C74.5302 1.62108 74.022 1.41406 73.468 1.41406Z" fill="#A16207"/>
</g>
<defs>
<clipPath id="clip0_214_404">
<rect width="19.4083" height="19.4083" fill="white" transform="translate(61.1367)"/>
</clipPath>
</defs>
</svg>
