<svg width="67" height="22" viewBox="0 0 67 22" fill="none" xmlns="http://www.w3.org/2000/svg">
<path d="M14.2745 18.656C13.1688 19.8355 11.6871 20.4253 9.8294 20.4253C7.98648 20.4253 6.55638 19.9313 5.53908 18.9435C4.52179 17.941 4.01314 16.533 4.01314 14.7196C4.01314 12.9061 4.55865 11.5719 5.64966 10.7167C6.74067 9.84688 8.10443 9.41195 9.74094 9.41195C10.4339 9.41195 11.0973 9.4783 11.7313 9.61099C12.38 9.74368 12.8518 9.88374 13.1467 10.0312L13.589 10.2302L13.1024 12.5081C12.498 12.3311 11.8714 12.2427 11.2227 12.2427C10.5887 12.2427 10.0063 12.4491 9.47556 12.8619C8.95954 13.26 8.70154 13.8792 8.70154 14.7196C8.70154 16.6067 9.43133 17.5503 10.8909 17.5503C11.2743 17.5503 11.6428 17.5061 11.9967 17.4176C12.3505 17.3144 12.6085 17.2112 12.7707 17.108L13.014 16.9753L14.2745 18.656ZM18.7254 20.4253C17.5901 20.4253 16.6539 20.0935 15.9167 19.4301C15.1943 18.7666 14.8331 17.8304 14.8331 16.6215C14.8331 15.3978 15.2459 14.5132 16.0715 13.9677C16.8972 13.4074 17.8924 13.1273 19.0571 13.1273C20.2218 13.1273 21.2317 13.3116 22.0868 13.6802C21.8952 12.4565 21.1212 11.8446 19.7648 11.8446C19.1455 11.8446 18.3789 11.9699 17.4648 12.2206L16.9119 10.2302C18.2388 9.68471 19.5878 9.41195 20.959 9.41195C24.9102 9.41195 26.8858 11.0927 26.8858 14.4542C26.8858 15.6042 26.7531 17.1965 26.4877 19.231L26.3772 20.2041H22.7282L22.5955 18.9878C21.5929 19.9461 20.3029 20.4253 18.7254 20.4253ZM20.7157 17.683C21.3792 17.683 21.9468 17.4987 22.4186 17.1301L22.2859 15.6705C21.9173 15.4199 21.5045 15.2946 21.0474 15.2946C20.6051 15.2946 20.2366 15.4051 19.9417 15.6263C19.6616 15.8474 19.5215 16.1202 19.5215 16.4445C19.5215 16.7689 19.6321 17.0564 19.8532 17.307C20.0744 17.5577 20.3619 17.683 20.7157 17.683ZM33.4675 5.85143L32.8704 20.2041H28.8012L28.2041 5.85143H33.4675ZM40.0545 10.0312L40.4304 9.89849L39.6785 20.2041H35.4988L34.7911 9.89849C35.6315 10.2376 36.5234 10.4071 37.467 10.4071C38.4253 10.4071 39.2878 10.2818 40.0545 10.0312ZM37.5997 9.43407C36.8625 9.43407 36.2433 9.21292 35.742 8.77062C35.2408 8.32832 34.9901 7.75333 34.9901 7.04564C34.9901 6.32322 35.2334 5.74823 35.7199 5.32067C36.2212 4.87837 36.8404 4.65722 37.5776 4.65722C38.3295 4.65722 38.9561 4.87837 39.4574 5.32067C39.9586 5.76297 40.2093 6.33796 40.2093 7.04564C40.2093 7.75333 39.9586 8.32832 39.4574 8.77062C38.9561 9.21292 38.3369 9.43407 37.5997 9.43407ZM51.9176 18.656C50.8119 19.8355 49.3302 20.4253 47.4725 20.4253C45.6296 20.4253 44.1995 19.9313 43.1822 18.9435C42.1649 17.941 41.6562 16.533 41.6562 14.7196C41.6562 12.9061 42.2018 11.5719 43.2928 10.7167C44.3838 9.84688 45.7475 9.41195 47.384 9.41195C48.077 9.41195 48.7404 9.4783 49.3744 9.61099C50.0231 9.74368 50.4949 9.88374 50.7898 10.0312L51.2321 10.2302L50.7455 12.5081C50.1411 12.3311 49.5145 12.2427 48.8658 12.2427C48.2318 12.2427 47.6494 12.4491 47.1187 12.8619C46.6026 13.26 46.3446 13.8792 46.3446 14.7196C46.3446 16.6067 47.0744 17.5503 48.534 17.5503C48.9174 17.5503 49.2859 17.5061 49.6398 17.4176C49.9936 17.3144 50.2516 17.2112 50.4138 17.108L50.6571 16.9753L51.9176 18.656ZM54.0685 19.1205C53.007 18.2359 52.4762 16.8352 52.4762 14.9186C52.4762 13.002 53.007 11.6087 54.0685 10.7389C55.1448 9.85426 56.5749 9.41195 58.3588 9.41195C60.1428 9.41195 61.5655 9.85426 62.627 10.7389C63.7033 11.6087 64.2414 13.002 64.2414 14.9186C64.2414 16.8352 63.7033 18.2359 62.627 19.1205C61.5655 19.9903 60.1428 20.4253 58.3588 20.4253C56.5749 20.4253 55.1448 19.9903 54.0685 19.1205ZM57.43 12.4196C57.2531 12.9209 57.1646 13.7539 57.1646 14.9186C57.1646 16.0833 57.2531 16.9237 57.43 17.4397C57.6069 17.941 57.9165 18.1916 58.3588 18.1916C58.8011 18.1916 59.1107 17.941 59.2876 17.4397C59.4646 16.9237 59.553 16.0833 59.553 14.9186C59.553 13.7539 59.4646 12.9209 59.2876 12.4196C59.1107 11.9036 58.8011 11.6456 58.3588 11.6456C57.9165 11.6456 57.6069 11.9036 57.43 12.4196Z" fill="#20403C"/>
<path d="M8.4088 5.07535C8.83695 6.63194 8.38086 7.61904 7.54575 7.84609C6.71065 8.07314 5.81278 7.45415 5.38462 5.89756C4.95647 4.34097 5.28636 2.89504 6.12146 2.668C6.95656 2.44095 7.98064 3.51876 8.4088 5.07535Z" fill="#CEE38C"/>
<path d="M4.29698 6.2546C5.42248 7.41739 5.65861 9.87843 4.87358 9.09795C3.91255 8.14249 3.1634 9.57875 2.0379 8.41596C0.912398 7.25317 0.505713 5.82671 1.12954 5.22987C1.75337 4.63303 3.17148 5.09182 4.29698 6.2546Z" fill="#CEE38C"/>
<ellipse cx="58.7758" cy="14.9015" rx="3.13521" ry="4.32921" fill="#20403C"/>
<path d="M56.8818 13.837C56.7007 13.6041 56.7218 13.2736 56.9313 13.0654C57.1434 12.8545 57.4811 12.836 57.7153 13.0224L59.0945 14.1203C59.2384 14.2349 59.3695 14.3646 59.4854 14.5072L60.6666 15.9598C60.8555 16.1921 60.8376 16.5286 60.6252 16.7398C60.4163 16.9475 60.0847 16.9686 59.8509 16.789L58.4435 15.7083C58.2678 15.5733 58.1101 15.4166 57.9743 15.242L56.8818 13.837Z" fill="white"/>
<path d="M57.8343 16.7263C57.5993 16.9136 57.2602 16.8951 57.0472 16.6834C56.8383 16.4757 56.816 16.1464 56.9949 15.9126L57.9809 14.625C58.106 14.4616 58.2514 14.3145 58.4136 14.1873L59.9686 12.9678C60.2017 12.785 60.5355 12.8045 60.7454 13.0132C60.9565 13.2231 60.975 13.5573 60.7883 13.7889L59.6554 15.1949C59.5359 15.3431 59.4004 15.4778 59.2514 15.5967L57.8343 16.7263Z" fill="white"/>
<path d="M61.7344 7.9707C65.1076 8.98687 65.9944 11.354 66.0017 13.5121" stroke="#6366F1" stroke-width="1.72774" stroke-linecap="round"/>
<g clip-path="url(#clip0_537_786)">
<path d="M36.3257 0.750977C36.6182 0.750977 36.8865 0.860275 37.0818 1.06222C37.2772 1.26438 37.3931 1.55299 37.3931 1.90117C37.3931 2.24763 37.2787 2.59538 37.0921 2.85859C36.9064 3.12052 36.6374 3.31265 36.3257 3.31265C36.0141 3.31265 35.7451 3.12052 35.5594 2.85859C35.3728 2.59538 35.2584 2.24763 35.2584 1.90138C35.2584 1.55299 35.3743 1.26438 35.5698 1.06222C35.7649 0.860275 36.0333 0.750977 36.3257 0.750977ZM33.9775 2.67223C34.27 2.67223 34.5383 2.78153 34.7336 2.98347C34.929 3.18563 35.0449 3.47425 35.0449 3.82242C35.0449 4.16889 34.9305 4.51664 34.7439 4.77985C34.5582 5.04178 34.2892 5.2339 33.9775 5.2339C33.6658 5.2339 33.3969 5.04178 33.2112 4.77985C33.0246 4.51664 32.9102 4.16868 32.9102 3.82264C32.9102 3.47425 33.0261 3.18563 33.2216 2.98347C33.4167 2.78153 33.6851 2.67223 33.9775 2.67223ZM37.7133 4.16654C36.1925 4.16654 34.9326 5.46125 34.536 7.08471C34.3601 7.80497 34.6284 8.57753 35.2902 8.94363C35.8159 9.23481 36.6028 9.50336 37.7131 9.50336C38.8236 9.50336 39.6104 9.23481 40.1364 8.94363C40.798 8.57753 41.0663 7.80497 40.8904 7.08493C40.494 5.46125 39.2339 4.16654 37.7133 4.16654ZM41.4491 2.67223C41.1566 2.67223 40.8883 2.78153 40.6932 2.98347C40.4976 3.18563 40.3817 3.47425 40.3817 3.82242C40.3817 4.16889 40.4961 4.51664 40.6827 4.77985C40.8684 5.04178 41.1374 5.2339 41.4491 5.2339C41.7607 5.2339 42.0297 5.04178 42.2154 4.77985C42.402 4.51664 42.5164 4.16889 42.5164 3.82264C42.5164 3.47425 42.4005 3.18563 42.2052 2.98347C42.0099 2.78153 41.7415 2.67223 41.4491 2.67223ZM39.1009 0.750977C38.8084 0.750977 38.5401 0.860275 38.345 1.06222C38.1494 1.26438 38.0335 1.55299 38.0335 1.90117C38.0335 2.24763 38.1479 2.59538 38.3345 2.85859C38.5202 3.12052 38.7892 3.31265 39.1009 3.31265C39.4125 3.31265 39.6815 3.12052 39.8672 2.85859C40.0538 2.59538 40.1682 2.24763 40.1682 1.90138C40.1682 1.55299 40.0523 1.26438 39.857 1.06222C39.6617 0.860275 39.3933 0.750977 39.1009 0.750977Z" fill="#A16207"/>
</g>
<defs>
<clipPath id="clip0_537_786">
<rect width="10.2467" height="10.2467" fill="white" transform="translate(32.5811)"/>
</clipPath>
</defs>
</svg>
