<svg width="32" height="32" viewBox="0 0 32 32" fill="none" xmlns="http://www.w3.org/2000/svg">
<path d="M15.999 4.00001C13.612 4.00001 11.3228 4.94822 9.63501 6.63605C7.94718 8.32388 6.99897 10.6131 6.99897 13V17.802L5.07097 22.63C5.01058 22.7816 4.98822 22.9457 5.00585 23.108C5.02347 23.2702 5.08053 23.4257 5.17206 23.5608C5.26359 23.696 5.3868 23.8066 5.53094 23.8832C5.67508 23.9597 5.83576 23.9998 5.99897 24H11.999C11.999 26.216 13.783 28 15.999 28C18.215 28 19.999 26.216 19.999 24H25.999C26.1622 23.9998 26.3229 23.9597 26.467 23.8832C26.6111 23.8066 26.7343 23.696 26.8259 23.5608C26.9174 23.4257 26.9745 23.2702 26.9921 23.108C27.0097 22.9457 26.9874 22.7816 26.927 22.63L24.999 17.8V14C24.3108 14.0005 23.6299 13.8588 22.999 13.584V17.996C22.9993 18.1228 23.0237 18.2484 23.071 18.366L24.523 22H7.47497L8.92697 18.366C8.97421 18.2484 8.99864 18.1228 8.99897 17.996V13C8.99862 11.6945 9.36335 10.415 10.0519 9.3059C10.7405 8.1968 11.7255 7.30236 12.8957 6.72362C14.0659 6.14488 15.3746 5.9049 16.674 6.03078C17.9734 6.15667 19.2117 6.64341 20.249 7.43601C20.463 6.78601 20.807 6.19201 21.251 5.69001C19.7216 4.58829 17.8838 3.99691 15.999 4.00001ZM17.999 24C17.999 25.112 17.111 26 15.999 26C14.887 26 13.999 25.112 13.999 24H17.999ZM22.735 7.03201C22.45 7.35988 22.2397 7.74573 22.1185 8.16287C21.9973 8.58001 21.9681 9.01849 22.033 9.44801C22.1402 10.1579 22.4984 10.8058 23.0427 11.2741C23.5869 11.7424 24.281 11.9999 24.999 12C25.5012 12.0001 25.9954 11.874 26.4363 11.6334C26.8772 11.3929 27.2506 11.0455 27.5223 10.6231C27.794 10.2007 27.9553 9.71683 27.9915 9.2159C28.0276 8.71496 27.9374 8.21297 27.7291 7.75595C27.5209 7.29894 27.2012 6.90152 26.7994 6.60015C26.3977 6.29878 25.9267 6.10309 25.4296 6.03104C24.9326 5.95899 24.4254 6.01288 23.9546 6.18777C23.4838 6.36266 23.0644 6.65294 22.735 7.03201Z" fill="black"/>
</svg>
