<svg width="26" height="26" viewBox="0 0 26 26" fill="none" xmlns="http://www.w3.org/2000/svg">
<path d="M4.875 11.375C4.875 10.4775 4.14746 9.75 3.25 9.75C2.35254 9.75 1.625 10.4775 1.625 11.375V16.25C1.625 17.1475 2.35254 17.875 3.25 17.875C4.14746 17.875 4.875 17.1475 4.875 16.25V11.375Z" fill="white"/>
<path d="M24.375 11.375C24.375 10.4775 23.6475 9.75 22.75 9.75C21.8525 9.75 21.125 10.4775 21.125 11.375V16.25C21.125 17.1475 21.8525 17.875 22.75 17.875C23.6475 17.875 24.375 17.1475 24.375 16.25V11.375Z" fill="white"/>
<path d="M6.5 9.75173H19.5V19.5017H6.5V9.75173ZM8.125 19.5017H11.375V22.7517C11.375 23.1827 11.2038 23.596 10.899 23.9008C10.5943 24.2055 10.181 24.3767 9.75 24.3767C9.31902 24.3767 8.9057 24.2055 8.60095 23.9008C8.29621 23.596 8.125 23.1827 8.125 22.7517V19.5017ZM14.625 19.5017H17.875V22.7517C17.875 23.1827 17.7038 23.596 17.399 23.9008C17.0943 24.2055 16.681 24.3767 16.25 24.3767C15.819 24.3767 15.4057 24.2055 15.101 23.9008C14.7962 23.596 14.625 23.1827 14.625 22.7517V19.5017ZM17.5053 3.44755L19.2278 1.72505C19.3758 1.57181 19.4577 1.36657 19.4559 1.15353C19.454 0.940498 19.3686 0.736713 19.2179 0.586069C19.0673 0.435425 18.8635 0.349975 18.6505 0.348124C18.4374 0.346273 18.2322 0.428168 18.0789 0.576172L16.1891 2.46605C15.2163 1.91562 14.1177 1.62634 13 1.62634C11.8823 1.62634 10.7837 1.91562 9.81094 2.46605L7.92188 0.576172C7.84693 0.49857 7.75727 0.436672 7.65814 0.394089C7.55901 0.351507 7.4524 0.329093 7.34451 0.328156C7.23663 0.327218 7.12964 0.347776 7.02979 0.388629C6.92994 0.429482 6.83922 0.489813 6.76293 0.566101C6.68664 0.642389 6.62631 0.733106 6.58546 0.832959C6.5446 0.932812 6.52405 1.0398 6.52498 1.14769C6.52592 1.25557 6.54834 1.36218 6.59092 1.46131C6.6335 1.56044 6.6954 1.6501 6.773 1.72505L8.4955 3.44755C7.86425 4.0524 7.362 4.77881 7.01905 5.58299C6.67609 6.38717 6.49953 7.25248 6.5 8.12673H19.5C19.5006 7.25253 19.3241 6.38727 18.9813 5.58309C18.6385 4.77891 18.1364 4.05247 17.5053 3.44755ZM11.375 6.50173H9.75V4.87673H11.375V6.50173ZM16.25 6.50173H14.625V4.87673H16.25V6.50173Z" fill="white"/>
</svg>
