<svg width="26" height="26" viewBox="0 0 26 26" fill="none" xmlns="http://www.w3.org/2000/svg">
<path d="M18.4714 21.97C17.4098 22.9992 16.2506 22.8367 15.1348 22.3492C13.9539 21.8508 12.8706 21.8292 11.6248 22.3492C10.0648 23.0208 9.24142 22.8258 8.30975 21.97C3.02308 16.5208 3.80308 8.2225 9.80475 7.91917C11.2673 7.995 12.2856 8.72083 13.1414 8.78583C14.4198 8.52583 15.6439 7.77833 17.0089 7.87583C18.6448 8.00583 19.8798 8.65583 20.6923 9.82583C17.3123 11.8517 18.1139 16.3042 21.2123 17.55C20.5948 19.175 19.7931 20.7892 18.4606 21.9808L18.4714 21.97ZM13.0331 7.85417C12.8706 5.43833 14.8314 3.445 17.0848 3.25C17.3989 6.045 14.5498 8.125 13.0331 7.85417Z" fill="black"/>
</svg>
