<svg width="28" height="28" viewBox="0 0 28 28" fill="none" xmlns="http://www.w3.org/2000/svg">
<path d="M11.1599 15.314C11.1599 15.5303 11.0958 15.7418 10.9756 15.9216C10.8554 16.1015 10.6846 16.2417 10.4847 16.3245C10.2849 16.4072 10.065 16.4289 9.85279 16.3867C9.64063 16.3445 9.44574 16.2403 9.29278 16.0874C9.13981 15.9344 9.03564 15.7395 8.99344 15.5273C8.95124 15.3152 8.9729 15.0953 9.05568 14.8954C9.13846 14.6955 9.27865 14.5247 9.45852 14.4045C9.63839 14.2844 9.84985 14.2202 10.0662 14.2202C10.3563 14.2202 10.6345 14.3354 10.8396 14.5406C11.0447 14.7457 11.1599 15.0239 11.1599 15.314ZM17.9412 14.2202C17.7249 14.2202 17.5134 14.2844 17.3335 14.4045C17.1537 14.5247 17.0135 14.6955 16.9307 14.8954C16.8479 15.0953 16.8262 15.3152 16.8684 15.5273C16.9106 15.7395 17.0148 15.9344 17.1678 16.0874C17.3207 16.2403 17.5156 16.3445 17.7278 16.3867C17.94 16.4289 18.1599 16.4072 18.3597 16.3245C18.5596 16.2417 18.7304 16.1015 18.8506 15.9216C18.9708 15.7418 19.0349 15.5303 19.0349 15.314C19.0349 15.0239 18.9197 14.7457 18.7146 14.5406C18.5095 14.3354 18.2313 14.2202 17.9412 14.2202ZM25.1348 15.3927C24.9326 15.4853 24.7129 15.5334 24.4906 15.5338C24.2886 15.5334 24.0887 15.4922 23.903 15.4127C23.7174 15.3332 23.5496 15.217 23.4099 15.0712V20.1265C23.4099 21.2288 22.972 22.2859 22.1926 23.0654C21.4131 23.8448 20.356 24.2827 19.2537 24.2827H8.75367C7.65137 24.2827 6.59421 23.8448 5.81476 23.0654C5.03531 22.2859 4.59742 21.2288 4.59742 20.1265V15.0712C4.45734 15.2168 4.28936 15.3327 4.10352 15.412C3.91767 15.4913 3.71776 15.5323 3.51571 15.5327C3.29371 15.5322 3.07441 15.4841 2.87258 15.3916C2.55756 15.2533 2.29915 15.0116 2.14006 14.7066C1.98097 14.4015 1.93071 14.0513 1.99758 13.7138L3.79352 4.08881C3.83201 3.88358 3.91207 3.6884 4.02878 3.51525C4.14548 3.3421 4.29637 3.19465 4.47216 3.08197C4.64795 2.96928 4.84493 2.89374 5.05099 2.85998C5.25705 2.82623 5.46784 2.83498 5.67039 2.88568L5.69664 2.89334L11.4727 4.59522H16.5346L22.3085 2.89881L22.3348 2.89115C22.5373 2.84044 22.7481 2.8317 22.9542 2.86545C23.1602 2.89921 23.3572 2.97475 23.533 3.08744C23.7088 3.20012 23.8597 3.34757 23.9764 3.52072C24.0931 3.69386 24.1732 3.88905 24.2116 4.09428L26.0076 13.7193C26.0737 14.0559 26.0234 14.405 25.8647 14.7091C25.7061 15.0133 25.4487 15.2543 25.1348 15.3927ZM10.2718 5.60912L5.34555 4.15772C5.31781 4.1512 5.28903 4.15046 5.261 4.15554C5.23296 4.16062 5.20627 4.17142 5.18258 4.18725C5.15754 4.20347 5.13608 4.22465 5.11953 4.24948C5.10298 4.27431 5.09168 4.30226 5.08633 4.33162L3.29039 13.9566C3.28109 14.0048 3.28828 14.0548 3.31081 14.0984C3.33335 14.1421 3.36991 14.1769 3.41462 14.1972C3.45933 14.2175 3.50957 14.2222 3.55727 14.2105C3.60497 14.1988 3.64735 14.1714 3.67758 14.1327L10.2718 5.60912ZM22.0974 20.1265V13.3922L16.3071 5.90772H11.7002L5.90992 13.3922V20.1265C5.90992 20.8807 6.20953 21.604 6.74284 22.1373C7.27615 22.6706 7.99946 22.9702 8.75367 22.9702H13.3474V21.2727L11.7899 19.7152C11.674 19.5908 11.6109 19.4263 11.6139 19.2563C11.6169 19.0862 11.6858 18.924 11.806 18.8038C11.9262 18.6836 12.0885 18.6147 12.2585 18.6117C12.4285 18.6087 12.593 18.6718 12.7174 18.7877L14.0037 20.0729L15.2899 18.7877C15.4143 18.6718 15.5789 18.6087 15.7489 18.6117C15.9189 18.6147 16.0811 18.6836 16.2013 18.8038C16.3216 18.924 16.3905 19.0862 16.3935 19.2563C16.3965 19.4263 16.3333 19.5908 16.2174 19.7152L14.6599 21.2727V22.9702H19.2537C20.0079 22.9702 20.7312 22.6706 21.2645 22.1373C21.7978 21.604 22.0974 20.8807 22.0974 20.1265ZM24.7224 13.9577L22.9265 4.33272C22.921 4.30355 22.9096 4.27581 22.8931 4.25118C22.8765 4.22655 22.8552 4.20554 22.8302 4.18943C22.7816 4.15936 22.7234 4.14881 22.6673 4.1599L17.7454 5.60693L24.3429 14.1382C24.3744 14.1737 24.4165 14.1979 24.4629 14.2074C24.5094 14.2168 24.5577 14.2109 24.6005 14.1906C24.6433 14.1702 24.6783 14.1365 24.7003 14.0945C24.7223 14.0525 24.7301 14.0045 24.7224 13.9577Z" fill="black"/>
</svg>
