<svg width="32" height="32" viewBox="0 0 32 32" fill="none" xmlns="http://www.w3.org/2000/svg">
<path d="M5.32812 15.9987C5.32812 13.1697 6.45193 10.4566 8.45232 8.45623C10.4527 6.45584 13.1658 5.33203 15.9948 5.33203C18.8238 5.33203 21.5369 6.45584 23.5373 8.45623C25.5377 10.4566 26.6615 13.1697 26.6615 15.9987V22.7854C26.6615 23.916 26.6615 24.4787 26.4935 24.9307C26.3599 25.2889 26.1508 25.6141 25.8805 25.8844C25.6102 26.1547 25.285 26.3638 24.9268 26.4974C24.4748 26.6654 23.9108 26.6654 22.7815 26.6654H15.9948C13.1658 26.6654 10.4527 25.5416 8.45232 23.5412C6.45193 21.5408 5.32813 18.8277 5.32812 15.9987Z" stroke="white" stroke-width="2"/>
<path d="M12 14.6641H20M16 19.9974H20" stroke="white" stroke-width="2" stroke-linecap="round" stroke-linejoin="round"/>
</svg>
