<svg width="26" height="26" viewBox="0 0 26 26" fill="none" xmlns="http://www.w3.org/2000/svg">
<path d="M7.15039 12.3469C7.15039 9.39378 7.15039 7.9172 8.06364 6.99961C8.97797 6.08203 10.4481 6.08203 13.3904 6.08203H16.5104C19.4516 6.08203 20.9228 6.08203 21.8361 6.99961C22.7504 7.9172 22.7504 9.39378 22.7504 12.3469V17.5686C22.7504 20.5218 22.7504 21.9984 21.8361 22.9159C20.9228 23.8335 19.4516 23.8335 16.5104 23.8335H13.3904C10.4481 23.8335 8.97797 23.8335 8.06364 22.9159C7.14931 21.9984 7.15039 20.5218 7.15039 17.5686V12.3469Z" fill="white"/>
<path opacity="0.5" d="M4.51967 3.43666C3.25 4.70524 3.25 6.74841 3.25 10.8337V13.0003C3.25 17.0856 3.25 19.1287 4.51967 20.3973C5.18808 21.0668 6.07208 21.3832 7.358 21.5327C7.15 20.6227 7.15 19.3703 7.15 17.5677V12.3471C7.15 9.39391 7.15 7.91733 8.06325 6.99974C8.97758 6.08216 10.4477 6.08216 13.39 6.08216H16.51C18.2997 6.08216 19.5433 6.08216 20.4512 6.28799C20.3017 4.99558 19.9853 4.10833 19.3137 3.43666C18.0451 2.16699 16.0019 2.16699 11.9167 2.16699C7.83142 2.16699 5.78825 2.16699 4.51967 3.43666Z" fill="white"/>
</svg>
