<svg width="84" height="84" viewBox="0 0 84 84" fill="none" xmlns="http://www.w3.org/2000/svg">
<path d="M42 73.5C40.8707 73.5 39.8008 73.29 38.7905 72.87C37.7825 72.4477 36.8888 71.8387 36.1095 71.043C34.2825 69.2627 32.7238 68.0983 31.4335 67.55C30.1432 67.0017 28.2042 66.7275 25.6165 66.7275C23.2995 66.7275 21.329 65.9167 19.705 64.295C18.0833 62.671 17.2725 60.6994 17.2725 58.38C17.2725 55.8414 16.9972 53.914 16.4465 52.598C15.8958 51.282 14.7327 49.7128 12.957 47.8905C12.145 47.0785 11.5325 46.1697 11.1195 45.164C10.7065 44.1607 10.5 43.1107 10.5 42.014C10.5 40.9174 10.7065 39.8627 11.1195 38.85C11.5325 37.8374 12.145 36.9239 12.957 36.1095C14.7303 34.3152 15.8935 32.7682 16.4465 31.4685C16.9995 30.1689 17.2748 28.2182 17.2725 25.6165C17.2725 23.2995 18.0833 21.329 19.705 19.705C21.329 18.0834 23.3007 17.2725 25.62 17.2725C28.1587 17.2725 30.0848 17.01 31.3985 16.485C32.7145 15.96 34.2848 14.784 36.1095 12.957C36.9238 12.1894 37.8268 11.5885 38.8185 11.1545C39.8102 10.7205 40.8602 10.5024 41.9685 10.5C43.0768 10.4977 44.1373 10.7042 45.15 11.1195C46.1627 11.5349 47.0762 12.1474 47.8905 12.957C49.6848 14.7304 51.2318 15.8935 52.5315 16.4465C53.8312 16.9995 55.7818 17.2749 58.3835 17.2725C60.7005 17.2725 62.671 18.0834 64.295 19.705C65.919 21.329 66.731 23.3007 66.731 25.62C66.731 28.1587 67.0063 30.0872 67.557 31.4055C68.1077 32.7239 69.2697 34.2919 71.043 36.1095C71.855 36.9239 72.4675 37.8327 72.8805 38.836C73.2935 39.8393 73.5 40.8894 73.5 41.986C73.5 43.0827 73.2935 44.1373 72.8805 45.15C72.4675 46.165 71.855 47.0785 71.043 47.8905C69.2183 49.7175 68.0435 51.2762 67.5185 52.5665C66.9935 53.8568 66.731 55.7958 66.731 58.3835C66.731 60.7005 65.919 62.671 64.295 64.295C62.671 65.919 60.6993 66.731 58.38 66.731C55.8413 66.731 53.9152 66.9935 52.6015 67.5185C51.2878 68.0435 49.7175 69.2183 47.8905 71.043C47.0785 71.8107 46.1767 72.4127 45.185 72.849C44.1933 73.2853 43.1317 73.5023 42 73.5ZM50.2915 53.6445C51.2482 53.6445 52.0462 53.3249 52.6855 52.6855C53.3248 52.0462 53.6445 51.2482 53.6445 50.2915C53.6445 49.3349 53.3248 48.5217 52.6855 47.852C52.0462 47.18 51.2482 46.844 50.2915 46.844C49.3348 46.844 48.5217 47.18 47.852 47.852C47.1823 48.524 46.8463 49.3372 46.844 50.2915C46.8417 51.2459 47.1777 52.0439 47.852 52.6855C48.5263 53.3272 49.3395 53.6469 50.2915 53.6445ZM33.544 52.864L52.864 33.614L50.386 31.136L31.136 50.456L33.544 52.864ZM33.7085 37.1525C34.6652 37.1525 35.4783 36.8177 36.148 36.148C36.8177 35.4784 37.1525 34.6652 37.1525 33.7085C37.1525 32.7519 36.8177 31.9538 36.148 31.3145C35.4783 30.6752 34.6652 30.3555 33.7085 30.3555C32.7518 30.3555 31.9538 30.6752 31.3145 31.3145C30.6752 31.9538 30.3555 32.7519 30.3555 33.7085C30.3555 34.6652 30.6752 35.4784 31.3145 36.148C31.9538 36.8177 32.7518 37.1537 33.7085 37.156" fill="#BABABA" fill-opacity="0.5"/>
</svg>
