<svg width="32" height="32" viewBox="0 0 32 32" fill="none" xmlns="http://www.w3.org/2000/svg">
<path d="M11.7323 14.9328C10.3178 14.9328 8.96125 14.3709 7.96106 13.3707C6.96086 12.3705 6.39896 11.014 6.39896 9.59948V5.33281C6.39896 5.04992 6.51134 4.7786 6.71138 4.57857C6.91142 4.37853 7.18273 4.26615 7.46563 4.26615H8.53229C8.81519 4.26615 9.0865 4.15377 9.28654 3.95373C9.48658 3.75369 9.59896 3.48238 9.59896 3.19948C9.59896 2.91658 9.48658 2.64527 9.28654 2.44523C9.0865 2.24519 8.81519 2.13281 8.53229 2.13281H7.46563C6.61693 2.13281 5.803 2.46995 5.20288 3.07007C4.60277 3.67019 4.26563 4.48412 4.26562 5.33281V9.59948C4.267 10.8045 4.56085 11.9912 5.12194 13.0577C5.68304 14.1242 6.49461 15.0385 7.48696 15.7221C8.44133 16.5619 9.21519 17.5868 9.76159 18.7346C10.308 19.8824 10.6156 21.1292 10.6656 22.3995C10.6656 24.3798 11.4523 26.2789 12.8526 27.6792C14.2528 29.0795 16.152 29.8661 18.1323 29.8661C20.1126 29.8661 22.0118 29.0795 23.412 27.6792C24.8123 26.2789 25.599 24.3798 25.599 22.3995V21.1835C26.6045 20.9239 27.4808 20.3064 28.0636 19.4469C28.6464 18.5874 28.8958 17.5449 28.765 16.5147C28.6341 15.4845 28.132 14.5374 27.3528 13.8509C26.5736 13.1644 25.5708 12.7856 24.5323 12.7856C23.4938 12.7856 22.491 13.1644 21.7118 13.8509C20.9326 14.5374 20.4305 15.4845 20.2996 16.5147C20.1688 17.5449 20.4181 18.5874 21.001 19.4469C21.5838 20.3064 22.4601 20.9239 23.4656 21.1835V22.3995C23.4656 23.814 22.9037 25.1705 21.9035 26.1707C20.9033 27.1709 19.5468 27.7328 18.1323 27.7328C16.7178 27.7328 15.3612 27.1709 14.3611 26.1707C13.3609 25.1705 12.799 23.814 12.799 22.3995C12.8517 21.1277 13.1626 19.8799 13.7127 18.732C14.2628 17.584 15.0407 16.56 15.999 15.7221C16.9874 15.0361 17.7948 14.1207 18.3521 13.0544C18.9094 11.9881 19.2 10.8026 19.199 9.59948V5.33281C19.199 4.48412 18.8618 3.67019 18.2617 3.07007C17.6616 2.46995 16.8477 2.13281 15.999 2.13281H14.9323C14.6494 2.13281 14.3781 2.24519 14.178 2.44523C13.978 2.64527 13.8656 2.91658 13.8656 3.19948C13.8656 3.48238 13.978 3.75369 14.178 3.95373C14.3781 4.15377 14.6494 4.26615 14.9323 4.26615H15.999C16.2819 4.26615 16.5532 4.37853 16.7532 4.57857C16.9532 4.7786 17.0656 5.04992 17.0656 5.33281V9.59948C17.0656 10.2999 16.9277 10.9934 16.6596 11.6405C16.3916 12.2875 15.9988 12.8755 15.5035 13.3707C15.0083 13.866 14.4203 14.2588 13.7733 14.5268C13.1262 14.7949 12.4327 14.9328 11.7323 14.9328ZM24.5323 19.1995C23.9665 19.1995 23.4239 18.9747 23.0238 18.5746C22.6237 18.1746 22.399 17.6319 22.399 17.0661C22.399 16.5004 22.6237 15.9577 23.0238 15.5577C23.4239 15.1576 23.9665 14.9328 24.5323 14.9328C25.0981 14.9328 25.6407 15.1576 26.0408 15.5577C26.4409 15.9577 26.6656 16.5004 26.6656 17.0661C26.6656 17.6319 26.4409 18.1746 26.0408 18.5746C25.6407 18.9747 25.0981 19.1995 24.5323 19.1995Z" fill="white"/>
</svg>
