<svg width="252" height="216" viewBox="0 0 252 216" fill="none" xmlns="http://www.w3.org/2000/svg">
<circle cx="108" cy="143" r="30" fill="#20403C" fill-opacity="0.1"/>
<path d="M172 143C172 130.342 168.246 117.968 161.214 107.444C154.182 96.9188 144.186 88.7157 132.492 83.8717C120.797 79.0277 107.929 77.7603 95.5142 80.2297C83.0994 82.6992 71.6957 88.7946 62.7452 97.7452C53.7946 106.696 47.6992 118.099 45.2297 130.514C42.7603 142.929 44.0277 155.797 48.8717 167.492C53.7157 179.186 61.9188 189.182 72.4435 196.214C82.9683 203.246 95.342 207 108 207" stroke="url(#paint0_linear_214_241)" stroke-width="18"/>
<path d="M207 143C207 129.999 204.439 117.126 199.464 105.114C194.489 93.1031 187.197 82.1894 178.004 72.9964C168.811 63.8034 157.897 56.5111 145.886 51.5359C133.874 46.5607 121.001 44 108 44C94.9991 44 82.1256 46.5607 70.1143 51.5359C58.1031 56.5111 47.1894 63.8034 37.9964 72.9964C28.8034 82.1894 21.5111 93.1031 16.5359 105.114C11.5607 117.126 9 129.999 9 143" stroke="url(#paint1_linear_214_241)" stroke-width="18"/>
<path d="M243 143C243 121.167 237.637 99.6646 227.379 80.3636C217.12 61.0626 202.277 44.5476 184.139 32.2554C166.001 19.9633 145.119 12.2663 123.31 9.83409C101.5 7.4019 79.4232 10.3082 59 18.3001" stroke="url(#paint2_linear_214_241)" stroke-width="18"/>
<path d="M104.208 131.043C105.007 131.043 105.741 131.342 106.274 131.893C106.808 132.446 107.125 133.235 107.125 134.186C107.125 135.133 106.812 136.083 106.302 136.802C105.795 137.518 105.06 138.043 104.208 138.043C103.357 138.043 102.622 137.518 102.114 136.802C101.604 136.083 101.292 135.133 101.292 134.187C101.292 133.235 101.608 132.446 102.143 131.893C102.676 131.342 103.409 131.043 104.208 131.043ZM97.7917 136.293C98.5908 136.293 99.3241 136.592 99.8578 137.143C100.392 137.696 100.708 138.485 100.708 139.436C100.708 140.383 100.396 141.333 99.8858 142.052C99.3783 142.768 98.6433 143.293 97.7917 143.293C96.94 143.293 96.205 142.768 95.6975 142.052C95.1877 141.333 94.875 140.382 94.875 139.437C94.875 138.485 95.1918 137.696 95.7261 137.143C96.2593 136.592 96.9925 136.293 97.7917 136.293ZM108 140.376C103.844 140.376 100.401 143.914 99.3177 148.35C98.837 150.319 99.5703 152.43 101.379 153.43C102.815 154.226 104.965 154.96 107.999 154.96C111.034 154.96 113.184 154.226 114.621 153.43C116.429 152.43 117.162 150.319 116.682 148.351C115.598 143.914 112.155 140.376 108 140.376ZM118.208 136.293C117.409 136.293 116.676 136.592 116.143 137.143C115.608 137.696 115.292 138.485 115.292 139.436C115.292 140.383 115.604 141.333 116.114 142.052C116.622 142.768 117.357 143.293 118.208 143.293C119.06 143.293 119.795 142.768 120.302 142.052C120.812 141.333 121.125 140.383 121.125 139.437C121.125 138.485 120.808 137.696 120.274 137.143C119.741 136.592 119.007 136.293 118.208 136.293ZM111.792 131.043C110.993 131.043 110.259 131.342 109.726 131.893C109.192 132.446 108.875 133.235 108.875 134.186C108.875 135.133 109.188 136.083 109.697 136.802C110.205 137.518 110.94 138.043 111.792 138.043C112.643 138.043 113.378 137.518 113.886 136.802C114.396 136.083 114.708 135.133 114.708 134.187C114.708 133.235 114.392 132.446 113.858 131.893C113.324 131.342 112.591 131.043 111.792 131.043Z" fill="#20403C"/>
<defs>
<linearGradient id="paint0_linear_214_241" x1="108" y1="79" x2="108" y2="207" gradientUnits="userSpaceOnUse">
<stop stop-color="#CEE38C"/>
<stop offset="1" stop-color="#53A69C"/>
</linearGradient>
<linearGradient id="paint1_linear_214_241" x1="108" y1="44" x2="108" y2="143" gradientUnits="userSpaceOnUse">
<stop stop-color="#CEE38C"/>
<stop offset="1" stop-color="#53A69C"/>
</linearGradient>
<linearGradient id="paint2_linear_214_241" x1="151" y1="9" x2="151" y2="143" gradientUnits="userSpaceOnUse">
<stop stop-color="#CEE38C"/>
<stop offset="1" stop-color="#53A69C"/>
</linearGradient>
</defs>
</svg>
