<svg width="28" height="28" viewBox="0 0 28 28" fill="none" xmlns="http://www.w3.org/2000/svg">
<g clip-path="url(#clip0_341_51)">
<path d="M5.52143 4.75369C6.24615 4.41685 7.03697 4.37865 7.75358 4.6541C8.47044 4.93009 9.09009 5.51178 9.49109 6.37456C9.89013 7.23311 10.0071 8.22661 9.84791 9.09374C9.68937 9.95671 9.24412 10.7426 8.4718 11.1015C7.69947 11.4605 6.81167 11.2942 6.04977 10.859C5.28429 10.4217 4.60024 9.69174 4.20145 8.83372C3.8002 7.97041 3.75503 7.12172 4.00675 6.39555C4.25766 5.67041 4.79672 5.09052 5.52143 4.75369ZM1.91533 12.2191C2.64004 11.8822 3.43087 11.844 4.14748 12.1195C4.86433 12.3955 5.48398 12.9772 5.88499 13.84C6.28402 14.6985 6.40099 15.692 6.24181 16.5591C6.08326 17.4221 5.63801 18.208 4.86569 18.5669C4.09337 18.9259 3.20556 18.7596 2.44367 18.3244C1.67818 17.8871 0.99389 17.1566 0.595345 16.2991C0.194096 15.4358 0.14893 14.5871 0.400651 13.8609C0.65156 13.1358 1.19062 12.5559 1.91533 12.2191ZM12.8937 11.6194C9.12516 13.3709 7.49423 18.0303 8.38116 22.5101C8.77482 24.4975 10.3295 26.1029 12.3911 26.2479C14.0293 26.3639 16.2885 26.1231 19.0397 24.8444C21.7915 23.5654 23.4321 21.9936 24.4002 20.6663C25.6178 18.9972 25.393 16.7737 24.1278 15.192C21.2754 11.6251 16.6617 9.86811 12.8937 11.6194ZM20.4299 3.61386C19.7052 3.9507 19.1662 4.53059 18.9153 5.25573C18.6635 5.98189 18.7087 6.83059 19.1097 7.69337C19.5087 8.55192 20.1928 9.28186 20.9583 9.71922C21.7202 10.1544 22.608 10.3207 23.3803 9.96173C24.1526 9.60277 24.5979 8.81689 24.7564 7.95392C24.9156 7.08679 24.7986 6.09328 24.3998 5.23527C23.9986 4.37196 23.3789 3.79027 22.6621 3.51428C21.9455 3.23882 21.1546 3.27703 20.4299 3.61386ZM12.3983 1.55746C11.6736 1.8943 11.1345 2.47419 10.8836 3.19933C10.6319 3.92549 10.6771 4.77419 11.0781 5.63697C11.4771 6.49552 12.1611 7.22546 12.9266 7.66282C13.6885 8.09798 14.5763 8.26429 15.3486 7.90533C16.121 7.54637 16.5662 6.76049 16.7248 5.89752C16.884 5.03039 16.767 4.03689 16.3682 3.17887C15.9669 2.31556 15.3473 1.73387 14.6304 1.45788C13.9138 1.18242 13.123 1.22063 12.3983 1.55746Z" fill="#20403C" fill-opacity="0.5"/>
</g>
<defs>
<clipPath id="clip0_341_51">
<rect width="28" height="28" fill="white"/>
</clipPath>
</defs>
</svg>
