<svg width="26" height="26" viewBox="0 0 26 26" fill="none" xmlns="http://www.w3.org/2000/svg">
<path d="M4.33105 7.58333C4.33105 7.29602 4.44519 7.02047 4.64836 6.8173C4.85152 6.61414 5.12707 6.5 5.41439 6.5H20.5811C20.8684 6.5 21.1439 6.61414 21.3471 6.8173C21.5503 7.02047 21.6644 7.29602 21.6644 7.58333C21.6644 7.87065 21.5503 8.1462 21.3471 8.34937C21.1439 8.55253 20.8684 8.66667 20.5811 8.66667H5.41439C5.12707 8.66667 4.85152 8.55253 4.64836 8.34937C4.44519 8.1462 4.33105 7.87065 4.33105 7.58333ZM4.33105 13C4.33105 12.7127 4.44519 12.4371 4.64836 12.234C4.85152 12.0308 5.12707 11.9167 5.41439 11.9167H20.5811C20.8684 11.9167 21.1439 12.0308 21.3471 12.234C21.5503 12.4371 21.6644 12.7127 21.6644 13C21.6644 13.2873 21.5503 13.5629 21.3471 13.766C21.1439 13.9692 20.8684 14.0833 20.5811 14.0833H5.41439C5.12707 14.0833 4.85152 13.9692 4.64836 13.766C4.44519 13.5629 4.33105 13.2873 4.33105 13ZM4.33105 18.4167C4.33105 18.1293 4.44519 17.8538 4.64836 17.6506C4.85152 17.4475 5.12707 17.3333 5.41439 17.3333H20.5811C20.8684 17.3333 21.1439 17.4475 21.3471 17.6506C21.5503 17.8538 21.6644 18.1293 21.6644 18.4167C21.6644 18.704 21.5503 18.9795 21.3471 19.1827C21.1439 19.3859 20.8684 19.5 20.5811 19.5H5.41439C5.12707 19.5 4.85152 19.3859 4.64836 19.1827C4.44519 18.9795 4.33105 18.704 4.33105 18.4167Z" fill="black"/>
</svg>
