<svg width="32" height="32" viewBox="0 0 32 32" fill="none" xmlns="http://www.w3.org/2000/svg">
<path fill-rule="evenodd" clip-rule="evenodd" d="M26.6607 22.0943V11.4276L19.0417 3.80859H11.4226C10.6143 3.80859 9.83917 4.12968 9.26763 4.70122C8.69609 5.27276 8.375 6.04793 8.375 6.85621V22.0943C8.375 22.9026 8.69609 23.6778 9.26763 24.2493C9.83917 24.8208 10.6143 25.1419 11.4226 25.1419H23.6131C24.4214 25.1419 25.1965 24.8208 25.7681 24.2493C26.3396 23.6778 26.6607 22.9026 26.6607 22.0943Z" stroke="white" stroke-width="2" stroke-linecap="round" stroke-linejoin="round"/>
<path d="M17.5186 9.90309V15.9983H22.09M8.37574 6.85547C7.56747 6.85547 6.79229 7.17656 6.22075 7.7481C5.64921 8.31964 5.32813 9.09481 5.32812 9.90309V25.1412C5.32813 25.9495 5.64921 26.7246 6.22075 27.2962C6.79229 27.8677 7.56747 28.1888 8.37574 28.1888H20.5662C21.3745 28.1888 22.1497 27.8677 22.7212 27.2962C23.2928 26.7246 23.6138 25.9495 23.6138 25.1412" stroke="white" stroke-width="2" stroke-linecap="round" stroke-linejoin="round"/>
</svg>
