<svg width="264" height="70" viewBox="0 0 264 70" fill="none" xmlns="http://www.w3.org/2000/svg">
<path d="M1 68.8763C9.85463 70.4861 46.8015 56.19 72.1282 37.2927C74.5278 35.5022 69.7993 33.6526 66.9488 34.83C60.6304 37.4396 57.6211 45.6181 55.1952 51.6129C54.0912 54.3409 54.3704 56.8147 55.5712 58.4365C61.3879 66.2925 98.5707 53.7392 121.848 44.4768C125.092 43.1856 127.1 40.0919 126.335 39.2629C115.154 27.1336 93.2094 51.2404 91.1717 54.436C90.2822 55.8308 94.7378 57.6316 97.9885 58.0521C104.398 58.8812 117.347 51.3125 132.303 41.7137C137.953 38.0877 138.453 35.2865 136.464 35.2504C134.474 35.2144 129.671 37.5931 126.396 40.4042C123.121 43.2154 121.52 46.387 122.697 48.0208C130.888 59.3958 155.362 38.5061 168.304 30.8775C171.994 28.7022 174.017 38.434 180.07 39.2389C190.601 40.6394 197.476 30.457 200.314 28.0423C202.314 26.3409 195.098 39.9717 193.861 48.8017C192.982 55.0734 216.786 26.5887 229.777 8.11187C250.918 -21.9576 193.473 52.8262 193.449 56.4423C193.404 63.0506 215.185 44.9213 230.553 36.0914C234.662 33.7306 237.892 44.0323 245.157 46.0386C248.42 46.4591 250.822 45.6662 253.26 44.0684C255.698 42.4706 258.1 40.0919 263 37.6411" stroke="black" stroke-width="2" stroke-linecap="round"/>
</svg>
